# xmcd CD database file
#
# Track frame offsets:
#	150
#	22510
#	40060
#	53410
#
# Disc length: 1009 seconds
#
# Revision: 2
# Processed by: cddbd v1.5.2PL0 Copyright (c) Steve Scherf et al.
# Submitted via: CDex 1.70beta3
#
DISCID=1b03ef04
DTITLE=栗山千明 - 流星のナミダ -ガンダム盤-
DYEAR=1900
DGENRE=blues
TTITLE0=流星のナミダ
TTITLE1=結界 IN MY BED
TTITLE2=流星のナミダ -MOVIE Version-
TTITLE3=流星のナミダ -Instrumental-
EXTD=
EXTT0=
EXTT1=
EXTT2=
EXTT3=
PLAYORDER=
